<svg width="32" height="32" viewBox="0 0 32 32" fill="none" xmlns="http://www.w3.org/2000/svg">
<g clip-path="url(#clip0_4471_164098)">
<mask id="mask0_4471_164098" style="mask-type:alpha" maskUnits="userSpaceOnUse" x="-1" y="0" width="33" height="32">
<path d="M0.486367 14.683C-0.173428 15.437 -0.173429 16.563 0.486366 17.317L12.3305 30.8532C12.8618 31.4603 13.8062 31.4603 14.3374 30.8532L15.6131 29.3953L17.0184 30.9284C17.5469 31.5049 18.4557 31.5049 18.9842 30.9284L31.4291 17.3521C32.1301 16.5875 32.1301 15.4138 31.4291 14.6492L18.9842 1.07288C18.4557 0.496386 17.5469 0.496386 17.0184 1.07288L15.6137 2.60535L14.3374 1.14678C13.8062 0.539681 12.8618 0.539679 12.3306 1.14678L0.486367 14.683Z" fill="#C4C4C4"/>
</mask>
<g mask="url(#mask0_4471_164098)">
<path d="M13.334 32L-0.666016 16L13.334 0L27.334 16L13.334 32Z" fill="url(#paint0_linear_4471_164098)"/>
<path opacity="0.5" d="M18.0013 0.5L32.668 16.5L18.0013 32.5L11.9068 25.8514C11.2059 25.0868 11.2059 23.9132 11.9068 23.1486L16.7625 17.8514C17.4634 17.0868 17.4634 15.9132 16.7625 15.1486L11.9068 9.85145C11.2059 9.08681 11.2059 7.91319 11.9068 7.14855L18.0013 0.5Z" fill="black" stroke="black" stroke-opacity="0.5"/>
<path d="M18.0013 0.000488281L32.668 16.0005L18.0013 32.0005L11.9068 25.3519C11.2059 24.5873 11.2059 23.4137 11.9068 22.649L16.7625 17.3519C17.4634 16.5873 17.4634 15.4137 16.7625 14.649L11.9068 9.35194C11.2059 8.5873 11.2059 7.41368 11.9068 6.64904L18.0013 0.000488281Z" fill="url(#paint1_linear_4471_164098)"/>
<path d="M24.3524 9.07271C24.8809 8.49622 25.7897 8.49622 26.3182 9.07271L31.4298 14.649C32.1307 15.4137 32.1307 16.5873 31.4298 17.3519L26.3182 22.9283C25.7897 23.5048 24.8809 23.5048 24.3524 22.9283L19.2408 17.3519C18.5399 16.5873 18.5399 15.4137 19.2408 14.649L24.3524 9.07271Z" fill="url(#paint2_linear_4471_164098)"/>
</g>
</g>
<defs>
<linearGradient id="paint0_linear_4471_164098" x1="23.6673" y1="32.0001" x2="5.00065" y2="-13.6666" gradientUnits="userSpaceOnUse">
<stop stop-color="#742774"/>
<stop offset="1" stop-color="#BB35A4"/>
</linearGradient>
<linearGradient id="paint1_linear_4471_164098" x1="10.6683" y1="0.000569481" x2="26.0016" y2="32.0006" gradientUnits="userSpaceOnUse">
<stop stop-color="#E48CC7"/>
<stop offset="1" stop-color="#D467B9"/>
</linearGradient>
<linearGradient id="paint2_linear_4471_164098" x1="20.6686" y1="9.66724" x2="25.3353" y2="24.0005" gradientUnits="userSpaceOnUse">
<stop stop-color="#E9A1CB"/>
<stop offset="1" stop-color="#E48CC7"/>
</linearGradient>
<clipPath id="clip0_4471_164098">
<rect width="32" height="32" fill="white"/>
</clipPath>
</defs>
</svg>
