<svg width="140" height="140" viewBox="0 0 140 140" fill="none" xmlns="http://www.w3.org/2000/svg">
<path d="M63.299 18.2996C63.299 18.8707 62.8374 19.3337 62.268 19.3337C61.6987 19.3337 61.2371 18.8707 61.2371 18.2996C61.2371 17.7286 61.6987 17.2656 62.268 17.2656C62.8374 17.2656 63.299 17.7286 63.299 18.2996Z" fill="#0078D4"/>
<path d="M68.4536 18.2996C68.4536 18.8707 67.992 19.3337 67.4227 19.3337C66.8533 19.3337 66.3918 18.8707 66.3918 18.2996C66.3918 17.7286 66.8533 17.2656 67.4227 17.2656C67.992 17.2656 68.4536 17.7286 68.4536 18.2996Z" fill="#0078D4"/>
<path d="M73.6083 18.2996C73.6083 18.8707 73.1467 19.3337 72.5773 19.3337C72.008 19.3337 71.5464 18.8707 71.5464 18.2996C71.5464 17.7286 72.008 17.2656 72.5773 17.2656C73.1467 17.2656 73.6083 17.7286 73.6083 18.2996Z" fill="#0078D4"/>
<path d="M78.7629 18.2996C78.7629 18.8707 78.3013 19.3337 77.732 19.3337C77.1626 19.3337 76.701 18.8707 76.701 18.2996C76.701 17.7286 77.1626 17.2656 77.732 17.2656C78.3013 17.2656 78.7629 17.7286 78.7629 18.2996Z" fill="#0078D4"/>
<path d="M83.9175 18.2996C83.9175 18.8707 83.456 19.3337 82.8866 19.3337C82.3172 19.3337 81.8557 18.8707 81.8557 18.2996C81.8557 17.7286 82.3172 17.2656 82.8866 17.2656C83.456 17.2656 83.9175 17.7286 83.9175 18.2996Z" fill="#0078D4"/>
<path d="M58.1443 23.4697C58.1443 24.0408 57.6828 24.5037 57.1134 24.5037C56.544 24.5037 56.0825 24.0408 56.0825 23.4697C56.0825 22.8986 56.544 22.4357 57.1134 22.4357C57.6828 22.4357 58.1443 22.8986 58.1443 23.4697Z" fill="#0078D4"/>
<path d="M63.299 23.4697C63.299 24.0408 62.8374 24.5037 62.268 24.5037C61.6987 24.5037 61.2371 24.0408 61.2371 23.4697C61.2371 22.8986 61.6987 22.4357 62.268 22.4357C62.8374 22.4357 63.299 22.8986 63.299 23.4697Z" fill="#0078D4"/>
<path d="M68.4536 23.4697C68.4536 24.0408 67.992 24.5037 67.4227 24.5037C66.8533 24.5037 66.3918 24.0408 66.3918 23.4697C66.3918 22.8986 66.8533 22.4357 67.4227 22.4357C67.992 22.4357 68.4536 22.8986 68.4536 23.4697Z" fill="#0078D4"/>
<path d="M73.6083 23.4697C73.6083 24.0408 73.1467 24.5037 72.5773 24.5037C72.008 24.5037 71.5464 24.0408 71.5464 23.4697C71.5464 22.8986 72.008 22.4357 72.5773 22.4357C73.1467 22.4357 73.6083 22.8986 73.6083 23.4697Z" fill="#0078D4"/>
<path d="M78.7629 23.4697C78.7629 24.0408 78.3013 24.5037 77.732 24.5037C77.1626 24.5037 76.701 24.0408 76.701 23.4697C76.701 22.8986 77.1626 22.4357 77.732 22.4357C78.3013 22.4357 78.7629 22.8986 78.7629 23.4697Z" fill="#0078D4"/>
<path d="M89.0722 23.4697C89.0722 24.0408 88.6106 24.5037 88.0412 24.5037C87.4719 24.5037 87.0103 24.0408 87.0103 23.4697C87.0103 22.8986 87.4719 22.4357 88.0412 22.4357C88.6106 22.4357 89.0722 22.8986 89.0722 23.4697Z" fill="#0078D4"/>
<path d="M94.2268 23.4697C94.2268 24.0408 93.7652 24.5037 93.1959 24.5037C92.6265 24.5037 92.165 24.0408 92.165 23.4697C92.165 22.8986 92.6265 22.4357 93.1959 22.4357C93.7652 22.4357 94.2268 22.8986 94.2268 23.4697Z" fill="#0078D4"/>
<path d="M58.1443 28.6398C58.1443 29.2108 57.6828 29.6738 57.1134 29.6738C56.544 29.6738 56.0825 29.2108 56.0825 28.6398C56.0825 28.0687 56.544 27.6058 57.1134 27.6058C57.6828 27.6058 58.1443 28.0687 58.1443 28.6398Z" fill="#0078D4"/>
<path d="M63.299 28.6398C63.299 29.2108 62.8374 29.6738 62.268 29.6738C61.6987 29.6738 61.2371 29.2108 61.2371 28.6398C61.2371 28.0687 61.6987 27.6058 62.268 27.6058C62.8374 27.6058 63.299 28.0687 63.299 28.6398Z" fill="#0078D4"/>
<path d="M68.4536 28.6398C68.4536 29.2108 67.992 29.6738 67.4227 29.6738C66.8533 29.6738 66.3918 29.2108 66.3918 28.6398C66.3918 28.0687 66.8533 27.6058 67.4227 27.6058C67.992 27.6058 68.4536 28.0687 68.4536 28.6398Z" fill="#0078D4"/>
<path d="M73.6083 28.6398C73.6083 29.2108 73.1467 29.6738 72.5773 29.6738C72.008 29.6738 71.5464 29.2108 71.5464 28.6398C71.5464 28.0687 72.008 27.6058 72.5773 27.6058C73.1467 27.6058 73.6083 28.0687 73.6083 28.6398Z" fill="#0078D4"/>
<path d="M78.7629 28.6398C78.7629 29.2108 78.3013 29.6738 77.732 29.6738C77.1626 29.6738 76.701 29.2108 76.701 28.6398C76.701 28.0687 77.1626 27.6058 77.732 27.6058C78.3013 27.6058 78.7629 28.0687 78.7629 28.6398Z" fill="#0078D4"/>
<path d="M89.0722 28.6398C89.0722 29.2108 88.6106 29.6738 88.0412 29.6738C87.4719 29.6738 87.0103 29.2108 87.0103 28.6398C87.0103 28.0687 87.4719 27.6058 88.0412 27.6058C88.6106 27.6058 89.0722 28.0687 89.0722 28.6398Z" fill="#0078D4"/>
<path d="M94.2268 28.6398C94.2268 29.2108 93.7652 29.6738 93.1959 29.6738C92.6265 29.6738 92.165 29.2108 92.165 28.6398C92.165 28.0687 92.6265 27.6058 93.1959 27.6058C93.7652 27.6058 94.2268 28.0687 94.2268 28.6398Z" fill="#0078D4"/>
<path d="M52.9897 33.8098C52.9897 34.3809 52.5281 34.8439 51.9588 34.8439C51.3894 34.8439 50.9278 34.3809 50.9278 33.8098C50.9278 33.2388 51.3894 32.7758 51.9588 32.7758C52.5281 32.7758 52.9897 33.2388 52.9897 33.8098Z" fill="#0078D4"/>
<path d="M58.1443 33.8098C58.1443 34.3809 57.6828 34.8439 57.1134 34.8439C56.544 34.8439 56.0825 34.3809 56.0825 33.8098C56.0825 33.2388 56.544 32.7758 57.1134 32.7758C57.6828 32.7758 58.1443 33.2388 58.1443 33.8098Z" fill="#0078D4"/>
<path d="M63.299 33.8098C63.299 34.3809 62.8374 34.8439 62.268 34.8439C61.6987 34.8439 61.2371 34.3809 61.2371 33.8098C61.2371 33.2388 61.6987 32.7758 62.268 32.7758C62.8374 32.7758 63.299 33.2388 63.299 33.8098Z" fill="#0078D4"/>
<path d="M68.4536 33.8098C68.4536 34.3809 67.992 34.8439 67.4227 34.8439C66.8533 34.8439 66.3918 34.3809 66.3918 33.8098C66.3918 33.2388 66.8533 32.7758 67.4227 32.7758C67.992 32.7758 68.4536 33.2388 68.4536 33.8098Z" fill="#0078D4"/>
<path d="M73.6083 33.8098C73.6083 34.3809 73.1467 34.8439 72.5773 34.8439C72.008 34.8439 71.5464 34.3809 71.5464 33.8098C71.5464 33.2388 72.008 32.7758 72.5773 32.7758C73.1467 32.7758 73.6083 33.2388 73.6083 33.8098Z" fill="#0078D4"/>
<path d="M78.7629 33.8098C78.7629 34.3809 78.3013 34.8439 77.732 34.8439C77.1626 34.8439 76.701 34.3809 76.701 33.8098C76.701 33.2388 77.1626 32.7758 77.732 32.7758C78.3013 32.7758 78.7629 33.2388 78.7629 33.8098Z" fill="#0078D4"/>
<path d="M89.0722 33.8098C89.0722 34.3809 88.6106 34.8439 88.0412 34.8439C87.4719 34.8439 87.0103 34.3809 87.0103 33.8098C87.0103 33.2388 87.4719 32.7758 88.0412 32.7758C88.6106 32.7758 89.0722 33.2388 89.0722 33.8098Z" fill="#0078D4"/>
<path d="M94.2268 33.8098C94.2268 34.3809 93.7652 34.8439 93.1959 34.8439C92.6265 34.8439 92.165 34.3809 92.165 33.8098C92.165 33.2388 92.6265 32.7758 93.1959 32.7758C93.7652 32.7758 94.2268 33.2388 94.2268 33.8098Z" fill="#0078D4"/>
<path d="M99.3814 33.8098C99.3814 34.3809 98.9199 34.8439 98.3505 34.8439C97.7812 34.8439 97.3196 34.3809 97.3196 33.8098C97.3196 33.2388 97.7812 32.7758 98.3505 32.7758C98.9199 32.7758 99.3814 33.2388 99.3814 33.8098Z" fill="#0078D4"/>
<path d="M52.9897 38.9799C52.9897 39.551 52.5281 40.0139 51.9588 40.0139C51.3894 40.0139 50.9278 39.551 50.9278 38.9799C50.9278 38.4088 51.3894 37.9459 51.9588 37.9459C52.5281 37.9459 52.9897 38.4088 52.9897 38.9799Z" fill="#0078D4"/>
<path d="M58.1443 38.9799C58.1443 39.551 57.6828 40.0139 57.1134 40.0139C56.544 40.0139 56.0825 39.551 56.0825 38.9799C56.0825 38.4088 56.544 37.9459 57.1134 37.9459C57.6828 37.9459 58.1443 38.4088 58.1443 38.9799Z" fill="#0078D4"/>
<path d="M63.299 38.9799C63.299 39.551 62.8374 40.0139 62.268 40.0139C61.6987 40.0139 61.2371 39.551 61.2371 38.9799C61.2371 38.4088 61.6987 37.9459 62.268 37.9459C62.8374 37.9459 63.299 38.4088 63.299 38.9799Z" fill="#0078D4"/>
<path d="M68.4536 38.9799C68.4536 39.551 67.992 40.0139 67.4227 40.0139C66.8533 40.0139 66.3918 39.551 66.3918 38.9799C66.3918 38.4088 66.8533 37.9459 67.4227 37.9459C67.992 37.9459 68.4536 38.4088 68.4536 38.9799Z" fill="#0078D4"/>
<path d="M73.6083 38.9799C73.6083 39.551 73.1467 40.0139 72.5773 40.0139C72.008 40.0139 71.5464 39.551 71.5464 38.9799C71.5464 38.4088 72.008 37.9459 72.5773 37.9459C73.1467 37.9459 73.6083 38.4088 73.6083 38.9799Z" fill="#0078D4"/>
<path d="M78.7629 38.9799C78.7629 39.551 78.3013 40.0139 77.732 40.0139C77.1626 40.0139 76.701 39.551 76.701 38.9799C76.701 38.4088 77.1626 37.9459 77.732 37.9459C78.3013 37.9459 78.7629 38.4088 78.7629 38.9799Z" fill="#0078D4"/>
<path d="M89.0722 38.9799C89.0722 39.551 88.6106 40.0139 88.0412 40.0139C87.4719 40.0139 87.0103 39.551 87.0103 38.9799C87.0103 38.4088 87.4719 37.9459 88.0412 37.9459C88.6106 37.9459 89.0722 38.4088 89.0722 38.9799Z" fill="#0078D4"/>
<path d="M94.2268 38.9799C94.2268 39.551 93.7652 40.0139 93.1959 40.0139C92.6265 40.0139 92.165 39.551 92.165 38.9799C92.165 38.4088 92.6265 37.9459 93.1959 37.9459C93.7652 37.9459 94.2268 38.4088 94.2268 38.9799Z" fill="#0078D4"/>
<path d="M99.3814 38.9799C99.3814 39.551 98.9199 40.0139 98.3505 40.0139C97.7812 40.0139 97.3196 39.551 97.3196 38.9799C97.3196 38.4088 97.7812 37.9459 98.3505 37.9459C98.9199 37.9459 99.3814 38.4088 99.3814 38.9799Z" fill="#0078D4"/>
<path d="M47.8351 44.15C47.8351 44.721 47.3735 45.184 46.8041 45.184C46.2348 45.184 45.7732 44.721 45.7732 44.15C45.7732 43.5789 46.2348 43.116 46.8041 43.116C47.3735 43.116 47.8351 43.5789 47.8351 44.15Z" fill="#0078D4"/>
<path d="M52.9897 44.15C52.9897 44.721 52.5281 45.184 51.9588 45.184C51.3894 45.184 50.9278 44.721 50.9278 44.15C50.9278 43.5789 51.3894 43.116 51.9588 43.116C52.5281 43.116 52.9897 43.5789 52.9897 44.15Z" fill="#0078D4"/>
<path d="M58.1443 44.15C58.1443 44.721 57.6828 45.184 57.1134 45.184C56.544 45.184 56.0825 44.721 56.0825 44.15C56.0825 43.5789 56.544 43.116 57.1134 43.116C57.6828 43.116 58.1443 43.5789 58.1443 44.15Z" fill="#0078D4"/>
<path d="M63.299 44.15C63.299 44.721 62.8374 45.184 62.268 45.184C61.6987 45.184 61.2371 44.721 61.2371 44.15C61.2371 43.5789 61.6987 43.116 62.268 43.116C62.8374 43.116 63.299 43.5789 63.299 44.15Z" fill="#0078D4"/>
<path d="M68.4536 44.15C68.4536 44.721 67.992 45.184 67.4227 45.184C66.8533 45.184 66.3918 44.721 66.3918 44.15C66.3918 43.5789 66.8533 43.116 67.4227 43.116C67.992 43.116 68.4536 43.5789 68.4536 44.15Z" fill="#0078D4"/>
<path d="M73.6083 44.15C73.6083 44.721 73.1467 45.184 72.5773 45.184C72.008 45.184 71.5464 44.721 71.5464 44.15C71.5464 43.5789 72.008 43.116 72.5773 43.116C73.1467 43.116 73.6083 43.5789 73.6083 44.15Z" fill="#0078D4"/>
<path d="M78.7629 44.15C78.7629 44.721 78.3013 45.184 77.732 45.184C77.1626 45.184 76.701 44.721 76.701 44.15C76.701 43.5789 77.1626 43.116 77.732 43.116C78.3013 43.116 78.7629 43.5789 78.7629 44.15Z" fill="#0078D4"/>
<path d="M89.0722 44.15C89.0722 44.721 88.6106 45.184 88.0412 45.184C87.4719 45.184 87.0103 44.721 87.0103 44.15C87.0103 43.5789 87.4719 43.116 88.0412 43.116C88.6106 43.116 89.0722 43.5789 89.0722 44.15Z" fill="#0078D4"/>
<path d="M94.2268 44.15C94.2268 44.721 93.7652 45.184 93.1959 45.184C92.6265 45.184 92.165 44.721 92.165 44.15C92.165 43.5789 92.6265 43.116 93.1959 43.116C93.7652 43.116 94.2268 43.5789 94.2268 44.15Z" fill="#0078D4"/>
<path d="M99.3814 44.15C99.3814 44.721 98.9199 45.184 98.3505 45.184C97.7812 45.184 97.3196 44.721 97.3196 44.15C97.3196 43.5789 97.7812 43.116 98.3505 43.116C98.9199 43.116 99.3814 43.5789 99.3814 44.15Z" fill="#0078D4"/>
<path d="M47.8351 49.32C47.8351 49.8911 47.3735 50.3541 46.8041 50.3541C46.2348 50.3541 45.7732 49.8911 45.7732 49.32C45.7732 48.749 46.2348 48.286 46.8041 48.286C47.3735 48.286 47.8351 48.749 47.8351 49.32Z" fill="#0078D4"/>
<path d="M52.9897 49.32C52.9897 49.8911 52.5281 50.3541 51.9588 50.3541C51.3894 50.3541 50.9278 49.8911 50.9278 49.32C50.9278 48.749 51.3894 48.286 51.9588 48.286C52.5281 48.286 52.9897 48.749 52.9897 49.32Z" fill="#0078D4"/>
<path d="M58.1443 49.32C58.1443 49.8911 57.6828 50.3541 57.1134 50.3541C56.544 50.3541 56.0825 49.8911 56.0825 49.32C56.0825 48.749 56.544 48.286 57.1134 48.286C57.6828 48.286 58.1443 48.749 58.1443 49.32Z" fill="#0078D4"/>
<path d="M63.299 49.32C63.299 49.8911 62.8374 50.3541 62.268 50.3541C61.6987 50.3541 61.2371 49.8911 61.2371 49.32C61.2371 48.749 61.6987 48.286 62.268 48.286C62.8374 48.286 63.299 48.749 63.299 49.32Z" fill="#0078D4"/>
<path d="M68.4536 49.32C68.4536 49.8911 67.992 50.3541 67.4227 50.3541C66.8533 50.3541 66.3918 49.8911 66.3918 49.32C66.3918 48.749 66.8533 48.286 67.4227 48.286C67.992 48.286 68.4536 48.749 68.4536 49.32Z" fill="#0078D4"/>
<path d="M73.6083 49.32C73.6083 49.8911 73.1467 50.3541 72.5773 50.3541C72.008 50.3541 71.5464 49.8911 71.5464 49.32C71.5464 48.749 72.008 48.286 72.5773 48.286C73.1467 48.286 73.6083 48.749 73.6083 49.32Z" fill="#0078D4"/>
<path d="M78.7629 49.32C78.7629 49.8911 78.3013 50.3541 77.732 50.3541C77.1626 50.3541 76.701 49.8911 76.701 49.32C76.701 48.749 77.1626 48.286 77.732 48.286C78.3013 48.286 78.7629 48.749 78.7629 49.32Z" fill="#0078D4"/>
<path d="M89.0722 49.32C89.0722 49.8911 88.6106 50.3541 88.0412 50.3541C87.4719 50.3541 87.0103 49.8911 87.0103 49.32C87.0103 48.749 87.4719 48.286 88.0412 48.286C88.6106 48.286 89.0722 48.749 89.0722 49.32Z" fill="#0078D4"/>
<path d="M94.2268 49.32C94.2268 49.8911 93.7652 50.3541 93.1959 50.3541C92.6265 50.3541 92.165 49.8911 92.165 49.32C92.165 48.749 92.6265 48.286 93.1959 48.286C93.7652 48.286 94.2268 48.749 94.2268 49.32Z" fill="#0078D4"/>
<path d="M104.536 49.32C104.536 49.8911 104.075 50.3541 103.505 50.3541C102.936 50.3541 102.474 49.8911 102.474 49.32C102.474 48.749 102.936 48.286 103.505 48.286C104.075 48.286 104.536 48.749 104.536 49.32Z" fill="#0078D4"/>
<path d="M109.691 49.32C109.691 49.8911 109.229 50.3541 108.66 50.3541C108.09 50.3541 107.629 49.8911 107.629 49.32C107.629 48.749 108.09 48.286 108.66 48.286C109.229 48.286 109.691 48.749 109.691 49.32Z" fill="#0078D4"/>
<path d="M114.845 49.32C114.845 49.8911 114.384 50.3541 113.814 50.3541C113.245 50.3541 112.784 49.8911 112.784 49.32C112.784 48.749 113.245 48.286 113.814 48.286C114.384 48.286 114.845 48.749 114.845 49.32Z" fill="#0078D4"/>
<path d="M120 49.32C120 49.8911 119.538 50.3541 118.969 50.3541C118.4 50.3541 117.938 49.8911 117.938 49.32C117.938 48.749 118.4 48.286 118.969 48.286C119.538 48.286 120 48.749 120 49.32Z" fill="#0078D4"/>
<path d="M47.8351 54.4901C47.8351 55.0612 47.3735 55.5241 46.8041 55.5241C46.2348 55.5241 45.7732 55.0612 45.7732 54.4901C45.7732 53.919 46.2348 53.4561 46.8041 53.4561C47.3735 53.4561 47.8351 53.919 47.8351 54.4901Z" fill="#0078D4"/>
<path d="M52.9897 54.4901C52.9897 55.0612 52.5281 55.5241 51.9588 55.5241C51.3894 55.5241 50.9278 55.0612 50.9278 54.4901C50.9278 53.919 51.3894 53.4561 51.9588 53.4561C52.5281 53.4561 52.9897 53.919 52.9897 54.4901Z" fill="#0078D4"/>
<path d="M58.1443 54.4901C58.1443 55.0612 57.6828 55.5241 57.1134 55.5241C56.544 55.5241 56.0825 55.0612 56.0825 54.4901C56.0825 53.919 56.544 53.4561 57.1134 53.4561C57.6828 53.4561 58.1443 53.919 58.1443 54.4901Z" fill="#0078D4"/>
<path d="M63.299 54.4901C63.299 55.0612 62.8374 55.5241 62.268 55.5241C61.6987 55.5241 61.2371 55.0612 61.2371 54.4901C61.2371 53.919 61.6987 53.4561 62.268 53.4561C62.8374 53.4561 63.299 53.919 63.299 54.4901Z" fill="#0078D4"/>
<path d="M68.4536 54.4901C68.4536 55.0612 67.992 55.5241 67.4227 55.5241C66.8533 55.5241 66.3918 55.0612 66.3918 54.4901C66.3918 53.919 66.8533 53.4561 67.4227 53.4561C67.992 53.4561 68.4536 53.919 68.4536 54.4901Z" fill="#0078D4"/>
<path d="M73.6083 54.4901C73.6083 55.0612 73.1467 55.5241 72.5773 55.5241C72.008 55.5241 71.5464 55.0612 71.5464 54.4901C71.5464 53.919 72.008 53.4561 72.5773 53.4561C73.1467 53.4561 73.6083 53.919 73.6083 54.4901Z" fill="#0078D4"/>
<path d="M78.7629 54.4901C78.7629 55.0612 78.3013 55.5241 77.732 55.5241C77.1626 55.5241 76.701 55.0612 76.701 54.4901C76.701 53.919 77.1626 53.4561 77.732 53.4561C78.3013 53.4561 78.7629 53.919 78.7629 54.4901Z" fill="#0078D4"/>
<path d="M89.0722 54.4901C89.0722 55.0612 88.6106 55.5241 88.0412 55.5241C87.4719 55.5241 87.0103 55.0612 87.0103 54.4901C87.0103 53.919 87.4719 53.4561 88.0412 53.4561C88.6106 53.4561 89.0722 53.919 89.0722 54.4901Z" fill="#0078D4"/>
<path d="M99.3814 54.4901C99.3814 55.0612 98.9199 55.5241 98.3505 55.5241C97.7812 55.5241 97.3196 55.0612 97.3196 54.4901C97.3196 53.919 97.7812 53.4561 98.3505 53.4561C98.9199 53.4561 99.3814 53.919 99.3814 54.4901Z" fill="#0078D4"/>
<path d="M104.536 54.4901C104.536 55.0612 104.075 55.5241 103.505 55.5241C102.936 55.5241 102.474 55.0612 102.474 54.4901C102.474 53.919 102.936 53.4561 103.505 53.4561C104.075 53.4561 104.536 53.919 104.536 54.4901Z" fill="#0078D4"/>
<path d="M109.691 54.4901C109.691 55.0612 109.229 55.5241 108.66 55.5241C108.09 55.5241 107.629 55.0612 107.629 54.4901C107.629 53.919 108.09 53.4561 108.66 53.4561C109.229 53.4561 109.691 53.919 109.691 54.4901Z" fill="#0078D4"/>
<path d="M114.845 54.4901C114.845 55.0612 114.384 55.5241 113.814 55.5241C113.245 55.5241 112.784 55.0612 112.784 54.4901C112.784 53.919 113.245 53.4561 113.814 53.4561C114.384 53.4561 114.845 53.919 114.845 54.4901Z" fill="#0078D4"/>
<path d="M120 54.4901C120 55.0612 119.538 55.5241 118.969 55.5241C118.4 55.5241 117.938 55.0612 117.938 54.4901C117.938 53.919 118.4 53.4561 118.969 53.4561C119.538 53.4561 120 53.919 120 54.4901Z" fill="#0078D4"/>
<path d="M42.6804 59.6602C42.6804 60.2313 42.2189 60.6942 41.6495 60.6942C41.0801 60.6942 40.6186 60.2313 40.6186 59.6602C40.6186 59.0891 41.0801 58.6262 41.6495 58.6262C42.2189 58.6262 42.6804 59.0891 42.6804 59.6602Z" fill="#0078D4"/>
<path d="M47.8351 59.6602C47.8351 60.2313 47.3735 60.6942 46.8041 60.6942C46.2348 60.6942 45.7732 60.2313 45.7732 59.6602C45.7732 59.0891 46.2348 58.6262 46.8041 58.6262C47.3735 58.6262 47.8351 59.0891 47.8351 59.6602Z" fill="#0078D4"/>
<path d="M52.9897 59.6602C52.9897 60.2313 52.5281 60.6942 51.9588 60.6942C51.3894 60.6942 50.9278 60.2313 50.9278 59.6602C50.9278 59.0891 51.3894 58.6262 51.9588 58.6262C52.5281 58.6262 52.9897 59.0891 52.9897 59.6602Z" fill="#0078D4"/>
<path d="M58.1443 59.6602C58.1443 60.2313 57.6828 60.6942 57.1134 60.6942C56.544 60.6942 56.0825 60.2313 56.0825 59.6602C56.0825 59.0891 56.544 58.6262 57.1134 58.6262C57.6828 58.6262 58.1443 59.0891 58.1443 59.6602Z" fill="#0078D4"/>
<path d="M63.299 59.6602C63.299 60.2313 62.8374 60.6942 62.268 60.6942C61.6987 60.6942 61.2371 60.2313 61.2371 59.6602C61.2371 59.0891 61.6987 58.6262 62.268 58.6262C62.8374 58.6262 63.299 59.0891 63.299 59.6602Z" fill="#0078D4"/>
<path d="M68.4536 59.6602C68.4536 60.2313 67.992 60.6942 67.4227 60.6942C66.8533 60.6942 66.3918 60.2313 66.3918 59.6602C66.3918 59.0891 66.8533 58.6262 67.4227 58.6262C67.992 58.6262 68.4536 59.0891 68.4536 59.6602Z" fill="#0078D4"/>
<path d="M73.6083 59.6602C73.6083 60.2313 73.1467 60.6942 72.5773 60.6942C72.008 60.6942 71.5464 60.2313 71.5464 59.6602C71.5464 59.0891 72.008 58.6262 72.5773 58.6262C73.1467 58.6262 73.6083 59.0891 73.6083 59.6602Z" fill="#0078D4"/>
<path d="M78.7629 59.6602C78.7629 60.2313 78.3013 60.6942 77.732 60.6942C77.1626 60.6942 76.701 60.2313 76.701 59.6602C76.701 59.0891 77.1626 58.6262 77.732 58.6262C78.3013 58.6262 78.7629 59.0891 78.7629 59.6602Z" fill="#0078D4"/>
<path d="M89.0722 59.6602C89.0722 60.2313 88.6106 60.6942 88.0412 60.6942C87.4719 60.6942 87.0103 60.2313 87.0103 59.6602C87.0103 59.0891 87.4719 58.6262 88.0412 58.6262C88.6106 58.6262 89.0722 59.0891 89.0722 59.6602Z" fill="#0078D4"/>
<path d="M99.3814 59.6602C99.3814 60.2313 98.9199 60.6942 98.3505 60.6942C97.7812 60.6942 97.3196 60.2313 97.3196 59.6602C97.3196 59.0891 97.7812 58.6262 98.3505 58.6262C98.9199 58.6262 99.3814 59.0891 99.3814 59.6602Z" fill="#0078D4"/>
<path d="M104.536 59.6602C104.536 60.2313 104.075 60.6942 103.505 60.6942C102.936 60.6942 102.474 60.2313 102.474 59.6602C102.474 59.0891 102.936 58.6262 103.505 58.6262C104.075 58.6262 104.536 59.0891 104.536 59.6602Z" fill="#0078D4"/>
<path d="M109.691 59.6602C109.691 60.2313 109.229 60.6942 108.66 60.6942C108.09 60.6942 107.629 60.2313 107.629 59.6602C107.629 59.0891 108.09 58.6262 108.66 58.6262C109.229 58.6262 109.691 59.0891 109.691 59.6602Z" fill="#0078D4"/>
<path d="M114.845 59.6602C114.845 60.2313 114.384 60.6942 113.814 60.6942C113.245 60.6942 112.784 60.2313 112.784 59.6602C112.784 59.0891 113.245 58.6262 113.814 58.6262C114.384 58.6262 114.845 59.0891 114.845 59.6602Z" fill="#0078D4"/>
<path d="M120 59.6602C120 60.2313 119.538 60.6942 118.969 60.6942C118.4 60.6942 117.938 60.2313 117.938 59.6602C117.938 59.0891 118.4 58.6262 118.969 58.6262C119.538 58.6262 120 59.0891 120 59.6602Z" fill="#0078D4"/>
<path d="M42.6804 64.8303C42.6804 65.4013 42.2189 65.8643 41.6495 65.8643C41.0801 65.8643 40.6186 65.4013 40.6186 64.8303C40.6186 64.2592 41.0801 63.7962 41.6495 63.7962C42.2189 63.7962 42.6804 64.2592 42.6804 64.8303Z" fill="#0078D4"/>
<path d="M47.8351 64.8303C47.8351 65.4013 47.3735 65.8643 46.8041 65.8643C46.2348 65.8643 45.7732 65.4013 45.7732 64.8303C45.7732 64.2592 46.2348 63.7962 46.8041 63.7962C47.3735 63.7962 47.8351 64.2592 47.8351 64.8303Z" fill="#0078D4"/>
<path d="M52.9897 64.8303C52.9897 65.4013 52.5281 65.8643 51.9588 65.8643C51.3894 65.8643 50.9278 65.4013 50.9278 64.8303C50.9278 64.2592 51.3894 63.7962 51.9588 63.7962C52.5281 63.7962 52.9897 64.2592 52.9897 64.8303Z" fill="#0078D4"/>
<path d="M58.1443 64.8303C58.1443 65.4013 57.6828 65.8643 57.1134 65.8643C56.544 65.8643 56.0825 65.4013 56.0825 64.8303C56.0825 64.2592 56.544 63.7962 57.1134 63.7962C57.6828 63.7962 58.1443 64.2592 58.1443 64.8303Z" fill="#0078D4"/>
<path d="M63.299 64.8303C63.299 65.4013 62.8374 65.8643 62.268 65.8643C61.6987 65.8643 61.2371 65.4013 61.2371 64.8303C61.2371 64.2592 61.6987 63.7962 62.268 63.7962C62.8374 63.7962 63.299 64.2592 63.299 64.8303Z" fill="#0078D4"/>
<path d="M68.4536 64.8303C68.4536 65.4013 67.992 65.8643 67.4227 65.8643C66.8533 65.8643 66.3918 65.4013 66.3918 64.8303C66.3918 64.2592 66.8533 63.7962 67.4227 63.7962C67.992 63.7962 68.4536 64.2592 68.4536 64.8303Z" fill="#0078D4"/>
<path d="M73.6083 64.8303C73.6083 65.4013 73.1467 65.8643 72.5773 65.8643C72.008 65.8643 71.5464 65.4013 71.5464 64.8303C71.5464 64.2592 72.008 63.7962 72.5773 63.7962C73.1467 63.7962 73.6083 64.2592 73.6083 64.8303Z" fill="#0078D4"/>
<path d="M78.7629 64.8303C78.7629 65.4013 78.3013 65.8643 77.732 65.8643C77.1626 65.8643 76.701 65.4013 76.701 64.8303C76.701 64.2592 77.1626 63.7962 77.732 63.7962C78.3013 63.7962 78.7629 64.2592 78.7629 64.8303Z" fill="#0078D4"/>
<path d="M89.0722 64.8303C89.0722 65.4013 88.6106 65.8643 88.0412 65.8643C87.4719 65.8643 87.0103 65.4013 87.0103 64.8303C87.0103 64.2592 87.4719 63.7962 88.0412 63.7962C88.6106 63.7962 89.0722 64.2592 89.0722 64.8303Z" fill="#0078D4"/>
<path d="M99.3814 64.8303C99.3814 65.4013 98.9199 65.8643 98.3505 65.8643C97.7812 65.8643 97.3196 65.4013 97.3196 64.8303C97.3196 64.2592 97.7812 63.7962 98.3505 63.7962C98.9199 63.7962 99.3814 64.2592 99.3814 64.8303Z" fill="#0078D4"/>
<path d="M104.536 64.8303C104.536 65.4013 104.075 65.8643 103.505 65.8643C102.936 65.8643 102.474 65.4013 102.474 64.8303C102.474 64.2592 102.936 63.7962 103.505 63.7962C104.075 63.7962 104.536 64.2592 104.536 64.8303Z" fill="#0078D4"/>
<path d="M109.691 64.8303C109.691 65.4013 109.229 65.8643 108.66 65.8643C108.09 65.8643 107.629 65.4013 107.629 64.8303C107.629 64.2592 108.09 63.7962 108.66 63.7962C109.229 63.7962 109.691 64.2592 109.691 64.8303Z" fill="#0078D4"/>
<path d="M114.845 64.8303C114.845 65.4013 114.384 65.8643 113.814 65.8643C113.245 65.8643 112.784 65.4013 112.784 64.8303C112.784 64.2592 113.245 63.7962 113.814 63.7962C114.384 63.7962 114.845 64.2592 114.845 64.8303Z" fill="#0078D4"/>
<path d="M120 64.8303C120 65.4013 119.538 65.8643 118.969 65.8643C118.4 65.8643 117.938 65.4013 117.938 64.8303C117.938 64.2592 118.4 63.7962 118.969 63.7962C119.538 63.7962 120 64.2592 120 64.8303Z" fill="#0078D4"/>
<path d="M42.6804 70.0003C42.6804 70.5714 42.2189 71.0343 41.6495 71.0343C41.0801 71.0343 40.6186 70.5714 40.6186 70.0003C40.6186 69.4292 41.0801 68.9663 41.6495 68.9663C42.2189 68.9663 42.6804 69.4292 42.6804 70.0003Z" fill="#0078D4"/>
<path d="M47.8351 70.0003C47.8351 70.5714 47.3735 71.0343 46.8041 71.0343C46.2348 71.0343 45.7732 70.5714 45.7732 70.0003C45.7732 69.4292 46.2348 68.9663 46.8041 68.9663C47.3735 68.9663 47.8351 69.4292 47.8351 70.0003Z" fill="#0078D4"/>
<path d="M52.9897 70.0003C52.9897 70.5714 52.5281 71.0343 51.9588 71.0343C51.3894 71.0343 50.9278 70.5714 50.9278 70.0003C50.9278 69.4292 51.3894 68.9663 51.9588 68.9663C52.5281 68.9663 52.9897 69.4292 52.9897 70.0003Z" fill="#0078D4"/>
<path d="M58.1443 70.0003C58.1443 70.5714 57.6828 71.0343 57.1134 71.0343C56.544 71.0343 56.0825 70.5714 56.0825 70.0003C56.0825 69.4292 56.544 68.9663 57.1134 68.9663C57.6828 68.9663 58.1443 69.4292 58.1443 70.0003Z" fill="#0078D4"/>
<path d="M63.299 70.0003C63.299 70.5714 62.8374 71.0343 62.268 71.0343C61.6987 71.0343 61.2371 70.5714 61.2371 70.0003C61.2371 69.4292 61.6987 68.9663 62.268 68.9663C62.8374 68.9663 63.299 69.4292 63.299 70.0003Z" fill="#0078D4"/>
<path d="M68.4536 70.0003C68.4536 70.5714 67.992 71.0343 67.4227 71.0343C66.8533 71.0343 66.3918 70.5714 66.3918 70.0003C66.3918 69.4292 66.8533 68.9663 67.4227 68.9663C67.992 68.9663 68.4536 69.4292 68.4536 70.0003Z" fill="#0078D4"/>
<path d="M73.6083 70.0003C73.6083 70.5714 73.1467 71.0343 72.5773 71.0343C72.008 71.0343 71.5464 70.5714 71.5464 70.0003C71.5464 69.4292 72.008 68.9663 72.5773 68.9663C73.1467 68.9663 73.6083 69.4292 73.6083 70.0003Z" fill="#0078D4"/>
<path d="M78.7629 70.0003C78.7629 70.5714 78.3013 71.0343 77.732 71.0343C77.1626 71.0343 76.701 70.5714 76.701 70.0003C76.701 69.4292 77.1626 68.9663 77.732 68.9663C78.3013 68.9663 78.7629 69.4292 78.7629 70.0003Z" fill="#0078D4"/>
<path d="M89.0722 70.0003C89.0722 70.5714 88.6106 71.0343 88.0412 71.0343C87.4719 71.0343 87.0103 70.5714 87.0103 70.0003C87.0103 69.4292 87.4719 68.9663 88.0412 68.9663C88.6106 68.9663 89.0722 69.4292 89.0722 70.0003Z" fill="#0078D4"/>
<path d="M99.3814 70.0003C99.3814 70.5714 98.9199 71.0343 98.3505 71.0343C97.7812 71.0343 97.3196 70.5714 97.3196 70.0003C97.3196 69.4292 97.7812 68.9663 98.3505 68.9663C98.9199 68.9663 99.3814 69.4292 99.3814 70.0003Z" fill="#0078D4"/>
<path d="M104.536 70.0003C104.536 70.5714 104.075 71.0343 103.505 71.0343C102.936 71.0343 102.474 70.5714 102.474 70.0003C102.474 69.4292 102.936 68.9663 103.505 68.9663C104.075 68.9663 104.536 69.4292 104.536 70.0003Z" fill="#0078D4"/>
<path d="M109.691 70.0003C109.691 70.5714 109.229 71.0343 108.66 71.0343C108.09 71.0343 107.629 70.5714 107.629 70.0003C107.629 69.4292 108.09 68.9663 108.66 68.9663C109.229 68.9663 109.691 69.4292 109.691 70.0003Z" fill="#0078D4"/>
<path d="M114.845 70.0003C114.845 70.5714 114.384 71.0343 113.814 71.0343C113.245 71.0343 112.784 70.5714 112.784 70.0003C112.784 69.4292 113.245 68.9663 113.814 68.9663C114.384 68.9663 114.845 69.4292 114.845 70.0003Z" fill="#0078D4"/>
<path d="M120 70.0003C120 70.5714 119.538 71.0343 118.969 71.0343C118.4 71.0343 117.938 70.5714 117.938 70.0003C117.938 69.4292 118.4 68.9663 118.969 68.9663C119.538 68.9663 120 69.4292 120 70.0003Z" fill="#0078D4"/>
<path d="M37.5258 75.1704C37.5258 75.7415 37.0642 76.2044 36.4948 76.2044C35.9255 76.2044 35.4639 75.7415 35.4639 75.1704C35.4639 74.5993 35.9255 74.1364 36.4948 74.1364C37.0642 74.1364 37.5258 74.5993 37.5258 75.1704Z" fill="#0078D4"/>
<path d="M42.6804 75.1704C42.6804 75.7415 42.2189 76.2044 41.6495 76.2044C41.0801 76.2044 40.6186 75.7415 40.6186 75.1704C40.6186 74.5993 41.0801 74.1364 41.6495 74.1364C42.2189 74.1364 42.6804 74.5993 42.6804 75.1704Z" fill="#0078D4"/>
<path d="M47.8351 75.1704C47.8351 75.7415 47.3735 76.2044 46.8041 76.2044C46.2348 76.2044 45.7732 75.7415 45.7732 75.1704C45.7732 74.5993 46.2348 74.1364 46.8041 74.1364C47.3735 74.1364 47.8351 74.5993 47.8351 75.1704Z" fill="#0078D4"/>
<path d="M52.9897 75.1704C52.9897 75.7415 52.5281 76.2044 51.9588 76.2044C51.3894 76.2044 50.9278 75.7415 50.9278 75.1704C50.9278 74.5993 51.3894 74.1364 51.9588 74.1364C52.5281 74.1364 52.9897 74.5993 52.9897 75.1704Z" fill="#0078D4"/>
<path d="M58.1443 75.1704C58.1443 75.7415 57.6828 76.2044 57.1134 76.2044C56.544 76.2044 56.0825 75.7415 56.0825 75.1704C56.0825 74.5993 56.544 74.1364 57.1134 74.1364C57.6828 74.1364 58.1443 74.5993 58.1443 75.1704Z" fill="#0078D4"/>
<path d="M63.299 75.1704C63.299 75.7415 62.8374 76.2044 62.268 76.2044C61.6987 76.2044 61.2371 75.7415 61.2371 75.1704C61.2371 74.5993 61.6987 74.1364 62.268 74.1364C62.8374 74.1364 63.299 74.5993 63.299 75.1704Z" fill="#0078D4"/>
<path d="M68.4536 75.1704C68.4536 75.7415 67.992 76.2044 67.4227 76.2044C66.8533 76.2044 66.3918 75.7415 66.3918 75.1704C66.3918 74.5993 66.8533 74.1364 67.4227 74.1364C67.992 74.1364 68.4536 74.5993 68.4536 75.1704Z" fill="#0078D4"/>
<path d="M73.6083 75.1704C73.6083 75.7415 73.1467 76.2044 72.5773 76.2044C72.008 76.2044 71.5464 75.7415 71.5464 75.1704C71.5464 74.5993 72.008 74.1364 72.5773 74.1364C73.1467 74.1364 73.6083 74.5993 73.6083 75.1704Z" fill="#0078D4"/>
<path d="M78.7629 75.1704C78.7629 75.7415 78.3013 76.2044 77.732 76.2044C77.1626 76.2044 76.701 75.7415 76.701 75.1704C76.701 74.5993 77.1626 74.1364 77.732 74.1364C78.3013 74.1364 78.7629 74.5993 78.7629 75.1704Z" fill="#0078D4"/>
<path d="M89.0722 75.1704C89.0722 75.7415 88.6106 76.2044 88.0412 76.2044C87.4719 76.2044 87.0103 75.7415 87.0103 75.1704C87.0103 74.5993 87.4719 74.1364 88.0412 74.1364C88.6106 74.1364 89.0722 74.5993 89.0722 75.1704Z" fill="#0078D4"/>
<path d="M99.3814 75.1704C99.3814 75.7415 98.9199 76.2044 98.3505 76.2044C97.7812 76.2044 97.3196 75.7415 97.3196 75.1704C97.3196 74.5993 97.7812 74.1364 98.3505 74.1364C98.9199 74.1364 99.3814 74.5993 99.3814 75.1704Z" fill="#0078D4"/>
<path d="M104.536 75.1704C104.536 75.7415 104.075 76.2044 103.505 76.2044C102.936 76.2044 102.474 75.7415 102.474 75.1704C102.474 74.5993 102.936 74.1364 103.505 74.1364C104.075 74.1364 104.536 74.5993 104.536 75.1704Z" fill="#0078D4"/>
<path d="M109.691 75.1704C109.691 75.7415 109.229 76.2044 108.66 76.2044C108.09 76.2044 107.629 75.7415 107.629 75.1704C107.629 74.5993 108.09 74.1364 108.66 74.1364C109.229 74.1364 109.691 74.5993 109.691 75.1704Z" fill="#0078D4"/>
<path d="M114.845 75.1704C114.845 75.7415 114.384 76.2044 113.814 76.2044C113.245 76.2044 112.784 75.7415 112.784 75.1704C112.784 74.5993 113.245 74.1364 113.814 74.1364C114.384 74.1364 114.845 74.5993 114.845 75.1704Z" fill="#0078D4"/>
<path d="M120 75.1704C120 75.7415 119.538 76.2044 118.969 76.2044C118.4 76.2044 117.938 75.7415 117.938 75.1704C117.938 74.5993 118.4 74.1364 118.969 74.1364C119.538 74.1364 120 74.5993 120 75.1704Z" fill="#0078D4"/>
<path d="M37.5258 80.3405C37.5258 80.9115 37.0642 81.3745 36.4948 81.3745C35.9255 81.3745 35.4639 80.9115 35.4639 80.3405C35.4639 79.7694 35.9255 79.3064 36.4948 79.3064C37.0642 79.3064 37.5258 79.7694 37.5258 80.3405Z" fill="#0078D4"/>
<path d="M42.6804 80.3405C42.6804 80.9115 42.2189 81.3745 41.6495 81.3745C41.0801 81.3745 40.6186 80.9115 40.6186 80.3405C40.6186 79.7694 41.0801 79.3064 41.6495 79.3064C42.2189 79.3064 42.6804 79.7694 42.6804 80.3405Z" fill="#0078D4"/>
<path d="M47.8351 80.3405C47.8351 80.9115 47.3735 81.3745 46.8041 81.3745C46.2348 81.3745 45.7732 80.9115 45.7732 80.3405C45.7732 79.7694 46.2348 79.3064 46.8041 79.3064C47.3735 79.3064 47.8351 79.7694 47.8351 80.3405Z" fill="#0078D4"/>
<path d="M52.9897 80.3405C52.9897 80.9115 52.5281 81.3745 51.9588 81.3745C51.3894 81.3745 50.9278 80.9115 50.9278 80.3405C50.9278 79.7694 51.3894 79.3064 51.9588 79.3064C52.5281 79.3064 52.9897 79.7694 52.9897 80.3405Z" fill="#0078D4"/>
<path d="M58.1443 80.3405C58.1443 80.9115 57.6828 81.3745 57.1134 81.3745C56.544 81.3745 56.0825 80.9115 56.0825 80.3405C56.0825 79.7694 56.544 79.3064 57.1134 79.3064C57.6828 79.3064 58.1443 79.7694 58.1443 80.3405Z" fill="#0078D4"/>
<path d="M63.299 80.3405C63.299 80.9115 62.8374 81.3745 62.268 81.3745C61.6987 81.3745 61.2371 80.9115 61.2371 80.3405C61.2371 79.7694 61.6987 79.3064 62.268 79.3064C62.8374 79.3064 63.299 79.7694 63.299 80.3405Z" fill="#0078D4"/>
<path d="M68.4536 80.3405C68.4536 80.9115 67.992 81.3745 67.4227 81.3745C66.8533 81.3745 66.3918 80.9115 66.3918 80.3405C66.3918 79.7694 66.8533 79.3064 67.4227 79.3064C67.992 79.3064 68.4536 79.7694 68.4536 80.3405Z" fill="#0078D4"/>
<path d="M73.6083 80.3405C73.6083 80.9115 73.1467 81.3745 72.5773 81.3745C72.008 81.3745 71.5464 80.9115 71.5464 80.3405C71.5464 79.7694 72.008 79.3064 72.5773 79.3064C73.1467 79.3064 73.6083 79.7694 73.6083 80.3405Z" fill="#0078D4"/>
<path d="M78.7629 80.3405C78.7629 80.9115 78.3013 81.3745 77.732 81.3745C77.1626 81.3745 76.701 80.9115 76.701 80.3405C76.701 79.7694 77.1626 79.3064 77.732 79.3064C78.3013 79.3064 78.7629 79.7694 78.7629 80.3405Z" fill="#0078D4"/>
<path d="M89.0722 80.3405C89.0722 80.9115 88.6106 81.3745 88.0412 81.3745C87.4719 81.3745 87.0103 80.9115 87.0103 80.3405C87.0103 79.7694 87.4719 79.3064 88.0412 79.3064C88.6106 79.3064 89.0722 79.7694 89.0722 80.3405Z" fill="#0078D4"/>
<path d="M99.3814 80.3405C99.3814 80.9115 98.9199 81.3745 98.3505 81.3745C97.7812 81.3745 97.3196 80.9115 97.3196 80.3405C97.3196 79.7694 97.7812 79.3064 98.3505 79.3064C98.9199 79.3064 99.3814 79.7694 99.3814 80.3405Z" fill="#0078D4"/>
<path d="M104.536 80.3405C104.536 80.9115 104.075 81.3745 103.505 81.3745C102.936 81.3745 102.474 80.9115 102.474 80.3405C102.474 79.7694 102.936 79.3064 103.505 79.3064C104.075 79.3064 104.536 79.7694 104.536 80.3405Z" fill="#0078D4"/>
<path d="M109.691 80.3405C109.691 80.9115 109.229 81.3745 108.66 81.3745C108.09 81.3745 107.629 80.9115 107.629 80.3405C107.629 79.7694 108.09 79.3064 108.66 79.3064C109.229 79.3064 109.691 79.7694 109.691 80.3405Z" fill="#0078D4"/>
<path d="M114.845 80.3405C114.845 80.9115 114.384 81.3745 113.814 81.3745C113.245 81.3745 112.784 80.9115 112.784 80.3405C112.784 79.7694 113.245 79.3064 113.814 79.3064C114.384 79.3064 114.845 79.7694 114.845 80.3405Z" fill="#0078D4"/>
<path d="M120 80.3405C120 80.9115 119.538 81.3745 118.969 81.3745C118.4 81.3745 117.938 80.9115 117.938 80.3405C117.938 79.7694 118.4 79.3064 118.969 79.3064C119.538 79.3064 120 79.7694 120 80.3405Z" fill="#0078D4"/>
<path d="M37.5258 85.5105C37.5258 86.0816 37.0642 86.5445 36.4948 86.5445C35.9255 86.5445 35.4639 86.0816 35.4639 85.5105C35.4639 84.9395 35.9255 84.4765 36.4948 84.4765C37.0642 84.4765 37.5258 84.9395 37.5258 85.5105Z" fill="#0078D4"/>
<path d="M42.6804 85.5105C42.6804 86.0816 42.2189 86.5445 41.6495 86.5445C41.0801 86.5445 40.6186 86.0816 40.6186 85.5105C40.6186 84.9395 41.0801 84.4765 41.6495 84.4765C42.2189 84.4765 42.6804 84.9395 42.6804 85.5105Z" fill="#0078D4"/>
<path d="M47.8351 85.5105C47.8351 86.0816 47.3735 86.5445 46.8041 86.5445C46.2348 86.5445 45.7732 86.0816 45.7732 85.5105C45.7732 84.9395 46.2348 84.4765 46.8041 84.4765C47.3735 84.4765 47.8351 84.9395 47.8351 85.5105Z" fill="#0078D4"/>
<path d="M52.9897 85.5105C52.9897 86.0816 52.5281 86.5445 51.9588 86.5445C51.3894 86.5445 50.9278 86.0816 50.9278 85.5105C50.9278 84.9395 51.3894 84.4765 51.9588 84.4765C52.5281 84.4765 52.9897 84.9395 52.9897 85.5105Z" fill="#0078D4"/>
<path d="M58.1443 85.5105C58.1443 86.0816 57.6828 86.5445 57.1134 86.5445C56.544 86.5445 56.0825 86.0816 56.0825 85.5105C56.0825 84.9395 56.544 84.4765 57.1134 84.4765C57.6828 84.4765 58.1443 84.9395 58.1443 85.5105Z" fill="#0078D4"/>
<path d="M63.299 85.5105C63.299 86.0816 62.8374 86.5445 62.268 86.5445C61.6987 86.5445 61.2371 86.0816 61.2371 85.5105C61.2371 84.9395 61.6987 84.4765 62.268 84.4765C62.8374 84.4765 63.299 84.9395 63.299 85.5105Z" fill="#0078D4"/>
<path d="M68.4536 85.5105C68.4536 86.0816 67.992 86.5445 67.4227 86.5445C66.8533 86.5445 66.3918 86.0816 66.3918 85.5105C66.3918 84.9395 66.8533 84.4765 67.4227 84.4765C67.992 84.4765 68.4536 84.9395 68.4536 85.5105Z" fill="#0078D4"/>
<path d="M73.6083 85.5105C73.6083 86.0816 73.1467 86.5445 72.5773 86.5445C72.008 86.5445 71.5464 86.0816 71.5464 85.5105C71.5464 84.9395 72.008 84.4765 72.5773 84.4765C73.1467 84.4765 73.6083 84.9395 73.6083 85.5105Z" fill="#0078D4"/>
<path d="M78.7629 85.5105C78.7629 86.0816 78.3013 86.5445 77.732 86.5445C77.1626 86.5445 76.701 86.0816 76.701 85.5105C76.701 84.9395 77.1626 84.4765 77.732 84.4765C78.3013 84.4765 78.7629 84.9395 78.7629 85.5105Z" fill="#0078D4"/>
<path d="M89.0722 85.5105C89.0722 86.0816 88.6106 86.5445 88.0412 86.5445C87.4719 86.5445 87.0103 86.0816 87.0103 85.5105C87.0103 84.9395 87.4719 84.4765 88.0412 84.4765C88.6106 84.4765 89.0722 84.9395 89.0722 85.5105Z" fill="#0078D4"/>
<path d="M99.3814 85.5105C99.3814 86.0816 98.9199 86.5445 98.3505 86.5445C97.7812 86.5445 97.3196 86.0816 97.3196 85.5105C97.3196 84.9395 97.7812 84.4765 98.3505 84.4765C98.9199 84.4765 99.3814 84.9395 99.3814 85.5105Z" fill="#0078D4"/>
<path d="M104.536 85.5105C104.536 86.0816 104.075 86.5445 103.505 86.5445C102.936 86.5445 102.474 86.0816 102.474 85.5105C102.474 84.9395 102.936 84.4765 103.505 84.4765C104.075 84.4765 104.536 84.9395 104.536 85.5105Z" fill="#0078D4"/>
<path d="M109.691 85.5105C109.691 86.0816 109.229 86.5445 108.66 86.5445C108.09 86.5445 107.629 86.0816 107.629 85.5105C107.629 84.9395 108.09 84.4765 108.66 84.4765C109.229 84.4765 109.691 84.9395 109.691 85.5105Z" fill="#0078D4"/>
<path d="M114.845 85.5105C114.845 86.0816 114.384 86.5445 113.814 86.5445C113.245 86.5445 112.784 86.0816 112.784 85.5105C112.784 84.9395 113.245 84.4765 113.814 84.4765C114.384 84.4765 114.845 84.9395 114.845 85.5105Z" fill="#0078D4"/>
<path d="M120 85.5105C120 86.0816 119.538 86.5445 118.969 86.5445C118.4 86.5445 117.938 86.0816 117.938 85.5105C117.938 84.9395 118.4 84.4765 118.969 84.4765C119.538 84.4765 120 84.9395 120 85.5105Z" fill="#0078D4"/>
<path d="M32.3711 90.6806C32.3711 91.2517 31.9096 91.7146 31.3402 91.7146C30.7708 91.7146 30.3093 91.2517 30.3093 90.6806C30.3093 90.1095 30.7708 89.6466 31.3402 89.6466C31.9096 89.6466 32.3711 90.1095 32.3711 90.6806Z" fill="#0078D4"/>
<path d="M37.5258 90.6806C37.5258 91.2517 37.0642 91.7146 36.4948 91.7146C35.9255 91.7146 35.4639 91.2517 35.4639 90.6806C35.4639 90.1095 35.9255 89.6466 36.4948 89.6466C37.0642 89.6466 37.5258 90.1095 37.5258 90.6806Z" fill="#0078D4"/>
<path d="M42.6804 90.6806C42.6804 91.2517 42.2189 91.7146 41.6495 91.7146C41.0801 91.7146 40.6186 91.2517 40.6186 90.6806C40.6186 90.1095 41.0801 89.6466 41.6495 89.6466C42.2189 89.6466 42.6804 90.1095 42.6804 90.6806Z" fill="#0078D4"/>
<path d="M47.8351 90.6806C47.8351 91.2517 47.3735 91.7146 46.8041 91.7146C46.2348 91.7146 45.7732 91.2517 45.7732 90.6806C45.7732 90.1095 46.2348 89.6466 46.8041 89.6466C47.3735 89.6466 47.8351 90.1095 47.8351 90.6806Z" fill="#0078D4"/>
<path d="M52.9897 90.6806C52.9897 91.2517 52.5281 91.7146 51.9588 91.7146C51.3894 91.7146 50.9278 91.2517 50.9278 90.6806C50.9278 90.1095 51.3894 89.6466 51.9588 89.6466C52.5281 89.6466 52.9897 90.1095 52.9897 90.6806Z" fill="#0078D4"/>
<path d="M58.1443 90.6806C58.1443 91.2517 57.6828 91.7146 57.1134 91.7146C56.544 91.7146 56.0825 91.2517 56.0825 90.6806C56.0825 90.1095 56.544 89.6466 57.1134 89.6466C57.6828 89.6466 58.1443 90.1095 58.1443 90.6806Z" fill="#0078D4"/>
<path d="M63.299 90.6806C63.299 91.2517 62.8374 91.7146 62.268 91.7146C61.6987 91.7146 61.2371 91.2517 61.2371 90.6806C61.2371 90.1095 61.6987 89.6466 62.268 89.6466C62.8374 89.6466 63.299 90.1095 63.299 90.6806Z" fill="#0078D4"/>
<path d="M68.4536 90.6806C68.4536 91.2517 67.992 91.7146 67.4227 91.7146C66.8533 91.7146 66.3918 91.2517 66.3918 90.6806C66.3918 90.1095 66.8533 89.6466 67.4227 89.6466C67.992 89.6466 68.4536 90.1095 68.4536 90.6806Z" fill="#0078D4"/>
<path d="M73.6083 90.6806C73.6083 91.2517 73.1467 91.7146 72.5773 91.7146C72.008 91.7146 71.5464 91.2517 71.5464 90.6806C71.5464 90.1095 72.008 89.6466 72.5773 89.6466C73.1467 89.6466 73.6083 90.1095 73.6083 90.6806Z" fill="#0078D4"/>
<path d="M78.7629 90.6806C78.7629 91.2517 78.3013 91.7146 77.732 91.7146C77.1626 91.7146 76.701 91.2517 76.701 90.6806C76.701 90.1095 77.1626 89.6466 77.732 89.6466C78.3013 89.6466 78.7629 90.1095 78.7629 90.6806Z" fill="#0078D4"/>
<path d="M99.3814 90.6806C99.3814 91.2517 98.9199 91.7146 98.3505 91.7146C97.7812 91.7146 97.3196 91.2517 97.3196 90.6806C97.3196 90.1095 97.7812 89.6466 98.3505 89.6466C98.9199 89.6466 99.3814 90.1095 99.3814 90.6806Z" fill="#0078D4"/>
<path d="M104.536 90.6806C104.536 91.2517 104.075 91.7146 103.505 91.7146C102.936 91.7146 102.474 91.2517 102.474 90.6806C102.474 90.1095 102.936 89.6466 103.505 89.6466C104.075 89.6466 104.536 90.1095 104.536 90.6806Z" fill="#0078D4"/>
<path d="M109.691 90.6806C109.691 91.2517 109.229 91.7146 108.66 91.7146C108.09 91.7146 107.629 91.2517 107.629 90.6806C107.629 90.1095 108.09 89.6466 108.66 89.6466C109.229 89.6466 109.691 90.1095 109.691 90.6806Z" fill="#0078D4"/>
<path d="M114.845 90.6806C114.845 91.2517 114.384 91.7146 113.814 91.7146C113.245 91.7146 112.784 91.2517 112.784 90.6806C112.784 90.1095 113.245 89.6466 113.814 89.6466C114.384 89.6466 114.845 90.1095 114.845 90.6806Z" fill="#0078D4"/>
<path d="M32.3711 95.8507C32.3711 96.4217 31.9096 96.8847 31.3402 96.8847C30.7708 96.8847 30.3093 96.4217 30.3093 95.8507C30.3093 95.2796 30.7708 94.8167 31.3402 94.8167C31.9096 94.8167 32.3711 95.2796 32.3711 95.8507Z" fill="#0078D4"/>
<path d="M37.5258 95.8507C37.5258 96.4217 37.0642 96.8847 36.4948 96.8847C35.9255 96.8847 35.4639 96.4217 35.4639 95.8507C35.4639 95.2796 35.9255 94.8167 36.4948 94.8167C37.0642 94.8167 37.5258 95.2796 37.5258 95.8507Z" fill="#0078D4"/>
<path d="M42.6804 95.8507C42.6804 96.4217 42.2189 96.8847 41.6495 96.8847C41.0801 96.8847 40.6186 96.4217 40.6186 95.8507C40.6186 95.2796 41.0801 94.8167 41.6495 94.8167C42.2189 94.8167 42.6804 95.2796 42.6804 95.8507Z" fill="#0078D4"/>
<path d="M47.8351 95.8507C47.8351 96.4217 47.3735 96.8847 46.8041 96.8847C46.2348 96.8847 45.7732 96.4217 45.7732 95.8507C45.7732 95.2796 46.2348 94.8167 46.8041 94.8167C47.3735 94.8167 47.8351 95.2796 47.8351 95.8507Z" fill="#0078D4"/>
<path d="M52.9897 95.8507C52.9897 96.4217 52.5281 96.8847 51.9588 96.8847C51.3894 96.8847 50.9278 96.4217 50.9278 95.8507C50.9278 95.2796 51.3894 94.8167 51.9588 94.8167C52.5281 94.8167 52.9897 95.2796 52.9897 95.8507Z" fill="#0078D4"/>
<path d="M58.1443 95.8507C58.1443 96.4217 57.6828 96.8847 57.1134 96.8847C56.544 96.8847 56.0825 96.4217 56.0825 95.8507C56.0825 95.2796 56.544 94.8167 57.1134 94.8167C57.6828 94.8167 58.1443 95.2796 58.1443 95.8507Z" fill="#0078D4"/>
<path d="M63.299 95.8507C63.299 96.4217 62.8374 96.8847 62.268 96.8847C61.6987 96.8847 61.2371 96.4217 61.2371 95.8507C61.2371 95.2796 61.6987 94.8167 62.268 94.8167C62.8374 94.8167 63.299 95.2796 63.299 95.8507Z" fill="#0078D4"/>
<path d="M68.4536 95.8507C68.4536 96.4217 67.992 96.8847 67.4227 96.8847C66.8533 96.8847 66.3918 96.4217 66.3918 95.8507C66.3918 95.2796 66.8533 94.8167 67.4227 94.8167C67.992 94.8167 68.4536 95.2796 68.4536 95.8507Z" fill="#0078D4"/>
<path d="M73.6083 95.8507C73.6083 96.4217 73.1467 96.8847 72.5773 96.8847C72.008 96.8847 71.5464 96.4217 71.5464 95.8507C71.5464 95.2796 72.008 94.8167 72.5773 94.8167C73.1467 94.8167 73.6083 95.2796 73.6083 95.8507Z" fill="#0078D4"/>
<path d="M78.7629 95.8507C78.7629 96.4217 78.3013 96.8847 77.732 96.8847C77.1626 96.8847 76.701 96.4217 76.701 95.8507C76.701 95.2796 77.1626 94.8167 77.732 94.8167C78.3013 94.8167 78.7629 95.2796 78.7629 95.8507Z" fill="#0078D4"/>
<path d="M32.3711 101.021C32.3711 101.592 31.9096 102.055 31.3402 102.055C30.7708 102.055 30.3093 101.592 30.3093 101.021C30.3093 100.45 30.7708 99.9867 31.3402 99.9867C31.9096 99.9867 32.3711 100.45 32.3711 101.021Z" fill="#0078D4"/>
<path d="M37.5258 101.021C37.5258 101.592 37.0642 102.055 36.4948 102.055C35.9255 102.055 35.4639 101.592 35.4639 101.021C35.4639 100.45 35.9255 99.9867 36.4948 99.9867C37.0642 99.9867 37.5258 100.45 37.5258 101.021Z" fill="#0078D4"/>
<path d="M42.6804 101.021C42.6804 101.592 42.2189 102.055 41.6495 102.055C41.0801 102.055 40.6186 101.592 40.6186 101.021C40.6186 100.45 41.0801 99.9867 41.6495 99.9867C42.2189 99.9867 42.6804 100.45 42.6804 101.021Z" fill="#0078D4"/>
<path d="M47.8351 101.021C47.8351 101.592 47.3735 102.055 46.8041 102.055C46.2348 102.055 45.7732 101.592 45.7732 101.021C45.7732 100.45 46.2348 99.9867 46.8041 99.9867C47.3735 99.9867 47.8351 100.45 47.8351 101.021Z" fill="#0078D4"/>
<path d="M52.9897 101.021C52.9897 101.592 52.5281 102.055 51.9588 102.055C51.3894 102.055 50.9278 101.592 50.9278 101.021C50.9278 100.45 51.3894 99.9867 51.9588 99.9867C52.5281 99.9867 52.9897 100.45 52.9897 101.021Z" fill="#0078D4"/>
<path d="M58.1443 101.021C58.1443 101.592 57.6828 102.055 57.1134 102.055C56.544 102.055 56.0825 101.592 56.0825 101.021C56.0825 100.45 56.544 99.9867 57.1134 99.9867C57.6828 99.9867 58.1443 100.45 58.1443 101.021Z" fill="#0078D4"/>
<path d="M63.299 101.021C63.299 101.592 62.8374 102.055 62.268 102.055C61.6987 102.055 61.2371 101.592 61.2371 101.021C61.2371 100.45 61.6987 99.9867 62.268 99.9867C62.8374 99.9867 63.299 100.45 63.299 101.021Z" fill="#0078D4"/>
<path d="M68.4536 101.021C68.4536 101.592 67.992 102.055 67.4227 102.055C66.8533 102.055 66.3918 101.592 66.3918 101.021C66.3918 100.45 66.8533 99.9867 67.4227 99.9867C67.992 99.9867 68.4536 100.45 68.4536 101.021Z" fill="#0078D4"/>
<path d="M73.6083 101.021C73.6083 101.592 73.1467 102.055 72.5773 102.055C72.008 102.055 71.5464 101.592 71.5464 101.021C71.5464 100.45 72.008 99.9867 72.5773 99.9867C73.1467 99.9867 73.6083 100.45 73.6083 101.021Z" fill="#0078D4"/>
<path d="M78.7629 101.021C78.7629 101.592 78.3013 102.055 77.732 102.055C77.1626 102.055 76.701 101.592 76.701 101.021C76.701 100.45 77.1626 99.9867 77.732 99.9867C78.3013 99.9867 78.7629 100.45 78.7629 101.021Z" fill="#0078D4"/>
<path d="M27.2165 106.191C27.2165 106.762 26.7549 107.225 26.1856 107.225C25.6162 107.225 25.1546 106.762 25.1546 106.191C25.1546 105.62 25.6162 105.157 26.1856 105.157C26.7549 105.157 27.2165 105.62 27.2165 106.191Z" fill="#0078D4"/>
<path d="M32.3711 106.191C32.3711 106.762 31.9096 107.225 31.3402 107.225C30.7708 107.225 30.3093 106.762 30.3093 106.191C30.3093 105.62 30.7708 105.157 31.3402 105.157C31.9096 105.157 32.3711 105.62 32.3711 106.191Z" fill="#0078D4"/>
<path d="M37.5258 106.191C37.5258 106.762 37.0642 107.225 36.4948 107.225C35.9255 107.225 35.4639 106.762 35.4639 106.191C35.4639 105.62 35.9255 105.157 36.4948 105.157C37.0642 105.157 37.5258 105.62 37.5258 106.191Z" fill="#0078D4"/>
<path d="M42.6804 106.191C42.6804 106.762 42.2189 107.225 41.6495 107.225C41.0801 107.225 40.6186 106.762 40.6186 106.191C40.6186 105.62 41.0801 105.157 41.6495 105.157C42.2189 105.157 42.6804 105.62 42.6804 106.191Z" fill="#0078D4"/>
<path d="M47.8351 106.191C47.8351 106.762 47.3735 107.225 46.8041 107.225C46.2348 107.225 45.7732 106.762 45.7732 106.191C45.7732 105.62 46.2348 105.157 46.8041 105.157C47.3735 105.157 47.8351 105.62 47.8351 106.191Z" fill="#0078D4"/>
<path d="M52.9897 106.191C52.9897 106.762 52.5281 107.225 51.9588 107.225C51.3894 107.225 50.9278 106.762 50.9278 106.191C50.9278 105.62 51.3894 105.157 51.9588 105.157C52.5281 105.157 52.9897 105.62 52.9897 106.191Z" fill="#0078D4"/>
<path d="M58.1443 106.191C58.1443 106.762 57.6828 107.225 57.1134 107.225C56.544 107.225 56.0825 106.762 56.0825 106.191C56.0825 105.62 56.544 105.157 57.1134 105.157C57.6828 105.157 58.1443 105.62 58.1443 106.191Z" fill="#0078D4"/>
<path d="M63.299 106.191C63.299 106.762 62.8374 107.225 62.268 107.225C61.6987 107.225 61.2371 106.762 61.2371 106.191C61.2371 105.62 61.6987 105.157 62.268 105.157C62.8374 105.157 63.299 105.62 63.299 106.191Z" fill="#0078D4"/>
<path d="M68.4536 106.191C68.4536 106.762 67.992 107.225 67.4227 107.225C66.8533 107.225 66.3918 106.762 66.3918 106.191C66.3918 105.62 66.8533 105.157 67.4227 105.157C67.992 105.157 68.4536 105.62 68.4536 106.191Z" fill="#0078D4"/>
<path d="M73.6083 106.191C73.6083 106.762 73.1467 107.225 72.5773 107.225C72.008 107.225 71.5464 106.762 71.5464 106.191C71.5464 105.62 72.008 105.157 72.5773 105.157C73.1467 105.157 73.6083 105.62 73.6083 106.191Z" fill="#0078D4"/>
<path d="M78.7629 106.191C78.7629 106.762 78.3013 107.225 77.732 107.225C77.1626 107.225 76.701 106.762 76.701 106.191C76.701 105.62 77.1626 105.157 77.732 105.157C78.3013 105.157 78.7629 105.62 78.7629 106.191Z" fill="#0078D4"/>
<path d="M27.2165 111.361C27.2165 111.932 26.7549 112.395 26.1856 112.395C25.6162 112.395 25.1546 111.932 25.1546 111.361C25.1546 110.79 25.6162 110.327 26.1856 110.327C26.7549 110.327 27.2165 110.79 27.2165 111.361Z" fill="#0078D4"/>
<path d="M32.3711 111.361C32.3711 111.932 31.9096 112.395 31.3402 112.395C30.7708 112.395 30.3093 111.932 30.3093 111.361C30.3093 110.79 30.7708 110.327 31.3402 110.327C31.9096 110.327 32.3711 110.79 32.3711 111.361Z" fill="#0078D4"/>
<path d="M37.5258 111.361C37.5258 111.932 37.0642 112.395 36.4948 112.395C35.9255 112.395 35.4639 111.932 35.4639 111.361C35.4639 110.79 35.9255 110.327 36.4948 110.327C37.0642 110.327 37.5258 110.79 37.5258 111.361Z" fill="#0078D4"/>
<path d="M42.6804 111.361C42.6804 111.932 42.2189 112.395 41.6495 112.395C41.0801 112.395 40.6186 111.932 40.6186 111.361C40.6186 110.79 41.0801 110.327 41.6495 110.327C42.2189 110.327 42.6804 110.79 42.6804 111.361Z" fill="#0078D4"/>
<path d="M47.8351 111.361C47.8351 111.932 47.3735 112.395 46.8041 112.395C46.2348 112.395 45.7732 111.932 45.7732 111.361C45.7732 110.79 46.2348 110.327 46.8041 110.327C47.3735 110.327 47.8351 110.79 47.8351 111.361Z" fill="#0078D4"/>
<path d="M52.9897 111.361C52.9897 111.932 52.5281 112.395 51.9588 112.395C51.3894 112.395 50.9278 111.932 50.9278 111.361C50.9278 110.79 51.3894 110.327 51.9588 110.327C52.5281 110.327 52.9897 110.79 52.9897 111.361Z" fill="#0078D4"/>
<path d="M58.1443 111.361C58.1443 111.932 57.6828 112.395 57.1134 112.395C56.544 112.395 56.0825 111.932 56.0825 111.361C56.0825 110.79 56.544 110.327 57.1134 110.327C57.6828 110.327 58.1443 110.79 58.1443 111.361Z" fill="#0078D4"/>
<path d="M63.299 111.361C63.299 111.932 62.8374 112.395 62.268 112.395C61.6987 112.395 61.2371 111.932 61.2371 111.361C61.2371 110.79 61.6987 110.327 62.268 110.327C62.8374 110.327 63.299 110.79 63.299 111.361Z" fill="#0078D4"/>
<path d="M68.4536 111.361C68.4536 111.932 67.992 112.395 67.4227 112.395C66.8533 112.395 66.3918 111.932 66.3918 111.361C66.3918 110.79 66.8533 110.327 67.4227 110.327C67.992 110.327 68.4536 110.79 68.4536 111.361Z" fill="#0078D4"/>
<path d="M73.6083 111.361C73.6083 111.932 73.1467 112.395 72.5773 112.395C72.008 112.395 71.5464 111.932 71.5464 111.361C71.5464 110.79 72.008 110.327 72.5773 110.327C73.1467 110.327 73.6083 110.79 73.6083 111.361Z" fill="#0078D4"/>
<path d="M78.7629 111.361C78.7629 111.932 78.3013 112.395 77.732 112.395C77.1626 112.395 76.701 111.932 76.701 111.361C76.701 110.79 77.1626 110.327 77.732 110.327C78.3013 110.327 78.7629 110.79 78.7629 111.361Z" fill="#0078D4"/>
<path d="M22.0619 116.531C22.0619 117.102 21.6003 117.565 21.0309 117.565C20.4616 117.565 20 117.102 20 116.531C20 115.96 20.4616 115.497 21.0309 115.497C21.6003 115.497 22.0619 115.96 22.0619 116.531Z" fill="#0078D4"/>
<path d="M27.2165 116.531C27.2165 117.102 26.7549 117.565 26.1856 117.565C25.6162 117.565 25.1546 117.102 25.1546 116.531C25.1546 115.96 25.6162 115.497 26.1856 115.497C26.7549 115.497 27.2165 115.96 27.2165 116.531Z" fill="#0078D4"/>
<path d="M32.3711 116.531C32.3711 117.102 31.9096 117.565 31.3402 117.565C30.7708 117.565 30.3093 117.102 30.3093 116.531C30.3093 115.96 30.7708 115.497 31.3402 115.497C31.9096 115.497 32.3711 115.96 32.3711 116.531Z" fill="#0078D4"/>
<path d="M37.5258 116.531C37.5258 117.102 37.0642 117.565 36.4948 117.565C35.9255 117.565 35.4639 117.102 35.4639 116.531C35.4639 115.96 35.9255 115.497 36.4948 115.497C37.0642 115.497 37.5258 115.96 37.5258 116.531Z" fill="#0078D4"/>
<path d="M42.6804 116.531C42.6804 117.102 42.2189 117.565 41.6495 117.565C41.0801 117.565 40.6186 117.102 40.6186 116.531C40.6186 115.96 41.0801 115.497 41.6495 115.497C42.2189 115.497 42.6804 115.96 42.6804 116.531Z" fill="#0078D4"/>
<path d="M47.8351 116.531C47.8351 117.102 47.3735 117.565 46.8041 117.565C46.2348 117.565 45.7732 117.102 45.7732 116.531C45.7732 115.96 46.2348 115.497 46.8041 115.497C47.3735 115.497 47.8351 115.96 47.8351 116.531Z" fill="#0078D4"/>
<path d="M52.9897 116.531C52.9897 117.102 52.5281 117.565 51.9588 117.565C51.3894 117.565 50.9278 117.102 50.9278 116.531C50.9278 115.96 51.3894 115.497 51.9588 115.497C52.5281 115.497 52.9897 115.96 52.9897 116.531Z" fill="#0078D4"/>
<path d="M58.1443 116.531C58.1443 117.102 57.6828 117.565 57.1134 117.565C56.544 117.565 56.0825 117.102 56.0825 116.531C56.0825 115.96 56.544 115.497 57.1134 115.497C57.6828 115.497 58.1443 115.96 58.1443 116.531Z" fill="#0078D4"/>
<path d="M63.299 116.531C63.299 117.102 62.8374 117.565 62.268 117.565C61.6987 117.565 61.2371 117.102 61.2371 116.531C61.2371 115.96 61.6987 115.497 62.268 115.497C62.8374 115.497 63.299 115.96 63.299 116.531Z" fill="#0078D4"/>
<path d="M68.4536 116.531C68.4536 117.102 67.992 117.565 67.4227 117.565C66.8533 117.565 66.3918 117.102 66.3918 116.531C66.3918 115.96 66.8533 115.497 67.4227 115.497C67.992 115.497 68.4536 115.96 68.4536 116.531Z" fill="#0078D4"/>
<path d="M73.6083 116.531C73.6083 117.102 73.1467 117.565 72.5773 117.565C72.008 117.565 71.5464 117.102 71.5464 116.531C71.5464 115.96 72.008 115.497 72.5773 115.497C73.1467 115.497 73.6083 115.96 73.6083 116.531Z" fill="#0078D4"/>
<path d="M22.0619 121.701C22.0619 122.272 21.6003 122.735 21.0309 122.735C20.4616 122.735 20 122.272 20 121.701C20 121.13 20.4616 120.667 21.0309 120.667C21.6003 120.667 22.0619 121.13 22.0619 121.701Z" fill="#0078D4"/>
<path d="M27.2165 121.701C27.2165 122.272 26.7549 122.735 26.1856 122.735C25.6162 122.735 25.1546 122.272 25.1546 121.701C25.1546 121.13 25.6162 120.667 26.1856 120.667C26.7549 120.667 27.2165 121.13 27.2165 121.701Z" fill="#0078D4"/>
<path d="M32.3711 121.701C32.3711 122.272 31.9096 122.735 31.3402 122.735C30.7708 122.735 30.3093 122.272 30.3093 121.701C30.3093 121.13 30.7708 120.667 31.3402 120.667C31.9096 120.667 32.3711 121.13 32.3711 121.701Z" fill="#0078D4"/>
<path d="M37.5258 121.701C37.5258 122.272 37.0642 122.735 36.4948 122.735C35.9255 122.735 35.4639 122.272 35.4639 121.701C35.4639 121.13 35.9255 120.667 36.4948 120.667C37.0642 120.667 37.5258 121.13 37.5258 121.701Z" fill="#0078D4"/>
<path d="M42.6804 121.701C42.6804 122.272 42.2189 122.735 41.6495 122.735C41.0801 122.735 40.6186 122.272 40.6186 121.701C40.6186 121.13 41.0801 120.667 41.6495 120.667C42.2189 120.667 42.6804 121.13 42.6804 121.701Z" fill="#0078D4"/>
<path d="M47.8351 121.701C47.8351 122.272 47.3735 122.735 46.8041 122.735C46.2348 122.735 45.7732 122.272 45.7732 121.701C45.7732 121.13 46.2348 120.667 46.8041 120.667C47.3735 120.667 47.8351 121.13 47.8351 121.701Z" fill="#0078D4"/>
<path d="M52.9897 121.701C52.9897 122.272 52.5281 122.735 51.9588 122.735C51.3894 122.735 50.9278 122.272 50.9278 121.701C50.9278 121.13 51.3894 120.667 51.9588 120.667C52.5281 120.667 52.9897 121.13 52.9897 121.701Z" fill="#0078D4"/>
<path d="M58.1443 121.701C58.1443 122.272 57.6828 122.735 57.1134 122.735C56.544 122.735 56.0825 122.272 56.0825 121.701C56.0825 121.13 56.544 120.667 57.1134 120.667C57.6828 120.667 58.1443 121.13 58.1443 121.701Z" fill="#0078D4"/>
<path d="M63.299 121.701C63.299 122.272 62.8374 122.735 62.268 122.735C61.6987 122.735 61.2371 122.272 61.2371 121.701C61.2371 121.13 61.6987 120.667 62.268 120.667C62.8374 120.667 63.299 121.13 63.299 121.701Z" fill="#0078D4"/>
<path d="M68.4536 121.701C68.4536 122.272 67.992 122.735 67.4227 122.735C66.8533 122.735 66.3918 122.272 66.3918 121.701C66.3918 121.13 66.8533 120.667 67.4227 120.667C67.992 120.667 68.4536 121.13 68.4536 121.701Z" fill="#0078D4"/>
<path d="M94.2268 90.6806C94.2268 91.2517 93.7653 91.7146 93.1959 91.7146C92.6265 91.7146 92.165 91.2517 92.165 90.6806C92.165 90.1095 92.6265 89.6466 93.1959 89.6466C93.7653 89.6466 94.2268 90.1095 94.2268 90.6806Z" fill="#0078D4"/>
<path d="M99.3814 28.6398C99.3814 29.2108 98.9199 29.6738 98.3505 29.6738C97.7812 29.6738 97.3196 29.2108 97.3196 28.6398C97.3196 28.0687 97.7812 27.6058 98.3505 27.6058C98.9199 27.6058 99.3814 28.0687 99.3814 28.6398Z" fill="#0078D4"/>
</svg>
