<svg width="720" height="720" xmlns="http://www.w3.org/2000/svg" xmlns:xlink="http://www.w3.org/1999/xlink" xml:space="preserve" overflow="hidden"><g transform="translate(-280 0)"><path d="M640 0C441.1 0 280 161.1 280 360 280 519.3 383.05 653.85 526.15 701.55 544.15 704.7 550.9 693.9 550.9 684.45 550.9 675.9 550.45 647.55 550.45 617.4 460 634.05 436.6 595.35 429.4 575.1 425.35 564.75 407.8 532.8 392.5 524.25 379.9 517.5 361.9 500.85 392.05 500.4 420.4 499.95 440.65 526.5 447.4 537.3 479.8 591.75 531.55 576.45 552.25 567 555.4 543.6 564.85 527.85 575.2 518.85 495.1 509.85 411.4 478.8 411.4 341.1 411.4 301.95 425.35 269.55 448.3 244.35 444.7 235.35 432.1 198.45 451.9 148.95 451.9 148.95 482.05 139.5 550.9 185.85 579.7 177.75 610.3 173.7 640.9 173.7 671.5 173.7 702.1 177.75 730.9 185.85 799.75 139.05 829.9 148.95 829.9 148.95 849.7 198.45 837.1 235.35 833.5 244.35 856.45 269.55 870.4 301.5 870.4 341.1 870.4 479.25 786.25 509.85 706.15 518.85 719.2 530.1 730.45 551.7 730.45 585.45 730.45 633.6 730 672.3 730 684.45 730 693.9 736.75 705.15 754.75 701.55 896.95 653.85 1000 518.85 1000 360 1000 161.1 838.9 0 640 0Z" fill="#00B0F0" fill-rule="evenodd"/></g></svg>