<svg width="16" height="16" viewBox="0 0 16 16" fill="none" xmlns="http://www.w3.org/2000/svg">
    <path
        d="M8 1C5.79086 1 4 2.79086 4 5C4 7.20914 5.79086 9 8 9C10.2091 9 12 7.20914 12 5C12 2.79086 10.2091 1 8 1Z"
        fill="#036C70" />
    <path
        d="M11.5 5C9.567 5 8 6.567 8 8.5C8 10.433 9.567 12 11.5 12C13.433 12 15 10.433 15 8.5C15 6.567 13.433 5 11.5 5Z"
        fill="#1A9BA1" />
    <path
        d="M8 8C6.067 8 4.5 9.567 4.5 11.5C4.5 13.433 6.067 15 8 15C9.933 15 11.5 13.433 11.5 11.5C11.5 9.567 9.933 8 8 8Z"
        fill="#37C6D0" />
    <path fill-rule="evenodd" clip-rule="evenodd"
        d="M4.83682 13H8.25C9.2165 13 10 12.2165 10 11.25V5.75C10 5.33579 9.66421 5 9.25 5H4C4 6.53501 4.86465 7.86807 6.13347 8.53871C5.15191 9.1587 4.5 10.2532 4.5 11.5C4.5 12.0368 4.62085 12.5454 4.83682 13Z"
        fill="black" fill-opacity="0.5" />
    <rect x="1" y="4" width="8" height="8" rx="0.75" fill="#038387" />
    <path
        d="M3.28467 10.141L3.65771 9.48554C3.88548 9.62731 4.09698 9.72609 4.29222 9.78188C4.48745 9.83766 4.7036 9.86555 4.94067 9.86555C5.22888 9.86555 5.452 9.80396 5.61005 9.68077C5.7681 9.55759 5.84712 9.38327 5.84712 9.15782C5.84712 8.94864 5.78204 8.78479 5.65188 8.66625C5.52173 8.54539 5.29279 8.43499 4.96508 8.33505C4.44678 8.1863 4.06909 7.99687 3.83202 7.76678C3.59495 7.53668 3.47642 7.23569 3.47642 6.86382C3.47642 6.44778 3.63098 6.10264 3.9401 5.82838C4.25154 5.55412 4.67455 5.41699 5.20912 5.41699C5.44387 5.41699 5.67396 5.44256 5.89941 5.49369C6.12486 5.54482 6.34799 5.62385 6.56879 5.73076L6.24805 6.4106C6.05746 6.31298 5.87385 6.24325 5.69721 6.20142C5.52289 6.15726 5.34741 6.13518 5.17077 6.13518C4.90813 6.13518 4.70244 6.19212 4.55369 6.30601C4.40494 6.41989 4.33057 6.58026 4.33057 6.78712C4.33057 6.97306 4.39797 7.11948 4.53277 7.2264C4.6699 7.33099 4.90697 7.43441 5.24398 7.53668C5.75996 7.68775 6.13416 7.88531 6.36658 8.12936C6.599 8.3734 6.71521 8.69065 6.71521 9.08112C6.71521 9.5204 6.55833 9.88065 6.24456 10.1619C5.93312 10.4431 5.4857 10.5837 4.90232 10.5837C4.61645 10.5837 4.33521 10.5477 4.05863 10.4757C3.78205 10.4013 3.52406 10.2897 3.28467 10.141Z"
        fill="white" />
</svg>